<svg width="20" height="17.3" viewBox="0 0 92 91" fill="white" xmlns="http://www.w3.org/2000/svg">
<path d="M40.4304 69.9822C48.472 69.9822 56.1842 66.8224 61.8705 61.1979C67.5568 55.5735 70.7513 47.9451 70.7513 39.9909C70.7513 32.0367 67.5568 24.4083 61.8705 18.7839C56.1842 13.1594 48.472 9.99961 40.4304 9.99961C32.3888 9.99961 24.6766 13.1594 18.9903 18.7839C13.304 24.4083 10.1095 32.0367 10.1095 39.9909C10.1095 47.9451 13.304 55.5735 18.9903 61.1979C24.6766 66.8224 32.3888 69.9822 40.4304 69.9822ZM72.3684 64.5138L90.4599 82.4086C90.9422 82.87 91.3268 83.4218 91.5912 84.0319C91.8556 84.6419 91.9945 85.2979 91.9998 85.9616C92.0052 86.6253 91.8769 87.2834 91.6223 87.8975C91.3678 88.5116 90.9921 89.0695 90.5173 89.5385C90.0425 90.0075 89.478 90.3782 88.8568 90.6291C88.2356 90.88 87.5701 91.006 86.8991 90.9998C86.2281 90.9936 85.5651 90.8552 84.9487 90.5928C84.3324 90.3304 83.775 89.9492 83.3092 89.4715L65.2177 71.5767C57.094 77.8141 46.8725 80.7549 36.634 79.8003C26.3954 78.8457 16.9095 74.0676 10.1072 66.4385C3.30497 58.8095 -0.302259 48.903 0.0198552 38.7359C0.34197 28.5687 4.56922 18.9051 11.8411 11.7123C19.1129 4.51955 28.8827 0.338252 39.1616 0.0196394C49.4405 -0.298973 59.4558 3.26905 67.1687 9.99736C74.8816 16.7257 79.7122 26.1085 80.6773 36.2358C81.6424 46.363 78.6693 56.4734 72.3633 64.5088L72.3684 64.5138Z" fill="white"/>
</svg>
